<svg width="20" height="20" viewBox="0 0 20 20" fill="none" xmlns="http://www.w3.org/2000/svg">
    <g clip-path="url(#clip0_692_1091)">
        <path d="M20 0.000244141H0V19.9998H20V0.000244141Z" fill="#D80027"/>
        <path d="M20 0H0V6.66652H20V0Z" fill="#338AF3"/>
        <path d="M20 13.3335H0V20H20V13.3335Z" fill="#6DA544"/>
        <path d="M10.2085 12.7085C8.71268 12.7085 7.5001 11.4959 7.5001 10.0001C7.5001 8.50433 8.71268 7.29175 10.2085 7.29175C10.6749 7.29175 11.1136 7.40968 11.4968 7.61726C10.8958 7.02952 10.0738 6.66675 9.16682 6.66675C7.32588 6.66675 5.8335 8.15913 5.8335 10.0001C5.8335 11.8411 7.32588 13.3335 9.16682 13.3335C10.0738 13.3335 10.8958 12.9707 11.4968 12.383C11.1136 12.5905 10.6748 12.7085 10.2085 12.7085Z" fill="#F0F0F0"/>
        <path d="M12.2915 8.125L12.6503 9.13391L13.6174 8.67414L13.1576 9.64121L14.1665 10L13.1576 10.3588L13.6174 11.3259L12.6503 10.8661L12.2915 11.875L11.9328 10.8661L10.9657 11.3259L11.4254 10.3588L10.4165 10L11.4254 9.64121L10.9657 8.67414L11.9328 9.13391L12.2915 8.125Z" fill="#F0F0F0"/>
    </g>
    <defs>
        <clipPath id="clip0_692_1091">
            <rect width="20" height="20" rx="10" fill="white"/>
        </clipPath>
    </defs>
</svg>
