<svg width="20" height="20" viewBox="0 0 20 20" fill="none" xmlns="http://www.w3.org/2000/svg">
    <g clip-path="url(#clip0_724_12712)">
        <path d="M20 0H0V20H20V0Z" fill="#F0F0F0"/>
        <path d="M0 11.875H8.125V20H11.875V11.875H20V8.125H11.875V0H8.125V8.125H0V11.875Z" fill="#D80027"/>
        <path d="M15.8953 13.0435L19.9999 17.1481V13.0435H15.8953Z" fill="#0052B4"/>
        <path d="M13.0435 13.0435L20 20V18.0328L15.0106 13.0435H13.0435Z" fill="#0052B4"/>
        <path d="M18.147 20.0001L13.0435 14.896V20.0001H18.147Z" fill="#0052B4"/>
        <path d="M13.0435 13.0435L20 20V18.0328L15.0106 13.0435H13.0435Z" fill="#F0F0F0"/>
        <path d="M13.0435 13.0435L20 20V18.0328L15.0106 13.0435H13.0435Z" fill="#D80027"/>
        <path d="M3.1368 13.0435L0 16.1803V13.0435H3.1368Z" fill="#0052B4"/>
        <path d="M6.95646 13.928V19.9998H0.885132L6.95646 13.928Z" fill="#0052B4"/>
        <path d="M4.98922 13.0437L0 18.033V20.0001L6.95641 13.0437H4.98922Z" fill="#D80027"/>
        <path d="M4.10469 6.95649L0 2.85181V6.95649H4.10469Z" fill="#0052B4"/>
        <path d="M6.95652 6.95652L0 0V1.96719L4.98934 6.95652H6.95652Z" fill="#0052B4"/>
        <path d="M1.85303 0L6.95658 5.10402V0H1.85303Z" fill="#0052B4"/>
        <path d="M6.95652 6.95652L0 0V1.96719L4.98934 6.95652H6.95652Z" fill="#F0F0F0"/>
        <path d="M6.95652 6.95652L0 0V1.96719L4.98934 6.95652H6.95652Z" fill="#D80027"/>
        <path d="M16.8632 6.95638L20 3.81958V6.95638H16.8632Z" fill="#0052B4"/>
        <path d="M13.0436 6.0718V0H19.1149L13.0436 6.0718Z" fill="#0052B4"/>
        <path d="M15.0108 6.95641L20 1.96715V0L13.0436 6.95641H15.0108Z" fill="#D80027"/>
    </g>
    <rect x="0.5" y="0.5" width="19" height="19" rx="9.5" stroke="black" stroke-opacity="0.12"/>
    <defs>
        <clipPath id="clip0_724_12712">
            <rect width="20" height="20" rx="10" fill="white"/>
        </clipPath>
    </defs>
</svg>
